<?xml version="1.0" standalone="no"?>
<!DOCTYPE svg PUBLIC "-//W3C//DTD SVG 20010904//EN"
 "http://www.w3.org/TR/2001/REC-SVG-20010904/DTD/svg10.dtd">
<svg version="1.0" xmlns="http://www.w3.org/2000/svg"
 width="220.000000pt" height="220.000000pt" viewBox="0 0 220.000000 220.000000"
 preserveAspectRatio="xMidYMid meet">
<metadata>
Created by potrace 1.11, written by Peter Selinger 2001-2013
</metadata>
<g transform="translate(0.000000,220.000000) scale(0.100000,-0.100000)"
fill="#000000" stroke="none">
<path d="M973 1875 c-139 -39 -237 -122 -302 -258 -39 -81 -51 -130 -86 -342
-63 -384 -65 -405 -64 -603 l1 -192 -44 -53 c-48 -56 -68 -101 -68 -153 0 -29
7 -38 64 -79 35 -25 107 -66 160 -91 345 -163 753 -132 1076 82 110 72 109 69
70 171 -38 101 -69 138 -111 129 -21 -4 -35 2 -64 27 -50 44 -75 122 -82 257
-3 58 -10 108 -15 111 -4 3 -2 24 6 48 25 68 46 198 46 275 0 49 -9 107 -28
177 -16 57 -37 138 -46 181 -10 42 -30 95 -46 120 -72 110 -200 200 -282 198
-24 -1 -63 1 -88 4 -27 3 -66 0 -97 -9z m300 -144 c36 -14 116 -90 143 -137
54 -91 86 -314 65 -440 -22 -125 -119 -288 -187 -314 -24 -9 -23 -3 -15 -156
1 -6 12 -28 26 -48 13 -20 21 -36 16 -36 -12 0 -38 31 -51 60 -9 22 -10 21 -6
-13 5 -38 58 -122 69 -110 4 3 7 1 7 -6 0 -6 6 -11 13 -10 44 6 51 -28 12 -59
-53 -42 -169 -47 -285 -12 -19 5 -62 15 -95 20 -33 6 -111 27 -174 47 l-114
37 57 13 c30 7 74 22 96 33 34 17 41 18 46 6 3 -8 0 -24 -6 -36 -18 -34 -5
-35 19 -2 12 17 21 40 21 52 0 12 6 27 13 35 6 7 24 32 38 56 26 43 45 54 154
94 38 14 106 11 115 -4 6 -11 8 -8 7 11 -2 22 -7 26 -30 26 -20 -1 -40 11 -73
43 -38 38 -44 40 -44 22 0 -20 -3 -21 -28 -12 -19 6 -36 25 -50 54 -12 25 -26
45 -30 45 -5 0 -14 12 -21 26 -11 25 -10 26 12 22 21 -4 23 -1 19 21 -3 14 -9
31 -14 38 -12 15 -38 110 -38 139 0 27 32 64 55 64 10 0 35 5 56 12 28 8 39
17 39 31 0 18 1 19 26 2 14 -9 28 -14 31 -11 10 10 -9 26 -47 37 -22 7 -37 15
-35 19 3 5 -10 5 -28 1 -40 -9 -67 -3 -67 14 0 17 41 24 112 18 59 -6 72 3 43
27 -10 8 -37 11 -81 8 l-66 -4 6 50 c10 90 42 135 132 188 83 50 98 54 137 39z
m243 -1076 c9 -38 23 -81 31 -93 8 -13 13 -26 10 -28 -8 -8 -44 58 -56 101 -6
22 -10 67 -9 100 1 35 3 46 5 25 2 -19 11 -66 19 -105z m-96 30 c-7 -45 -7
-46 -9 -13 -1 32 8 74 14 66 1 -2 -1 -25 -5 -53z m94 -126 c6 -13 2 -17 -16
-15 -21 1 -23 6 -25 66 l-2 65 18 -50 c10 -27 21 -57 25 -66z m-97 39 c-3 -7
-5 -2 -5 12 0 14 2 19 5 13 2 -7 2 -19 0 -25z m186 -165 c21 8 21 3 1 -17 -8
-9 -23 -16 -32 -16 -14 0 -15 2 -2 10 12 8 11 13 -8 33 -12 13 -22 27 -22 33
0 5 11 -4 23 -20 16 -20 29 -27 40 -23z m-69 -27 c10 -3 16 -9 13 -12 -9 -9
-70 29 -75 46 -3 10 3 8 19 -6 13 -12 33 -24 43 -28z"/>
<path d="M1340 1481 c-14 -4 -26 -15 -28 -24 -4 -21 0 -21 67 2 40 13 50 19
37 24 -21 8 -42 8 -76 -2z"/>
<path d="M1308 1395 c-18 -14 -21 -35 -7 -51 13 -16 33 -19 24 -4 -4 6 7 10
24 10 24 0 31 4 31 20 0 24 13 26 30 5 16 -19 30 -19 30 -1 0 29 -101 45 -132
21z"/>
<path d="M1180 1366 c0 -15 18 -31 26 -23 7 7 -7 37 -17 37 -5 0 -9 -6 -9 -14z"/>
<path d="M1395 1360 c-3 -5 -1 -10 4 -10 6 0 11 5 11 10 0 6 -2 10 -4 10 -3 0
-8 -4 -11 -10z"/>
<path d="M1202 1243 c-21 -8 -40 -56 -32 -79 9 -24 36 -38 45 -24 4 7 13 6 25
0 13 -7 21 -7 25 0 11 18 -5 30 -41 30 -27 0 -34 4 -34 19 0 11 9 23 20 26 20
6 26 20 13 28 -5 2 -14 2 -21 0z"/>
<path d="M1300 1160 c0 -5 5 -10 10 -10 6 0 10 5 10 10 0 6 -4 10 -10 10 -5 0
-10 -4 -10 -10z"/>
<path d="M1368 1097 c-18 -18 -97 -30 -112 -18 -8 6 -27 6 -56 0 -25 -6 -58
-8 -73 -5 -20 4 -27 2 -25 -6 7 -20 67 -48 116 -55 43 -5 45 -4 28 9 -18 14
-15 16 35 23 30 5 56 9 59 10 27 10 40 19 40 30 0 7 6 16 13 18 8 4 9 6 0 6
-6 1 -18 -5 -25 -12z"/>
</g>
</svg>
